<svg width="720" height="220" viewBox="0 0 720 220" fill="none" xmlns="http://www.w3.org/2000/svg" role="img" aria-labelledby="title desc">
  <title id="title">enis logo</title>
  <desc id="desc">Minimal enis wordmark with a rounded conversation-flow loop mark.</desc>
  <defs>
    <linearGradient id="enisGradient" x1="24" y1="20" x2="204" y2="200" gradientUnits="userSpaceOnUse">
      <stop offset="0" stop-color="#7CB7FF"/>
      <stop offset="0.48" stop-color="#5D8CFF"/>
      <stop offset="1" stop-color="#C084FC"/>
    </linearGradient>
  </defs>
  <rect x="24" y="20" width="180" height="180" rx="56" fill="url(#enisGradient)"/>
  <path d="M162 80C151 65 128 61 107 69C83 79 68 102 73 126C79 155 110 170 140 157C161 148 174 129 169 111C164 93 141 85 118 94C98 101 88 119 94 135C100 152 120 157 136 149C146 144 153 136 156 127" stroke="#FFFFFF" stroke-width="17" stroke-linecap="round" stroke-linejoin="round"/>
  <path d="M156 127C161 142 152 163 134 174C110 188 79 182 61 161" stroke="#FFFFFF" stroke-width="17" stroke-linecap="round" stroke-linejoin="round" opacity="0.42"/>
  <text x="244" y="142" fill="#21184A" font-family="Inter, SF Pro, system-ui, sans-serif" font-size="96" font-weight="700" letter-spacing="0">enis</text>
</svg>
